<?xml version="1.0" standalone="no"?>
<!DOCTYPE svg PUBLIC "-//W3C//DTD SVG 20010904//EN"
 "http://www.w3.org/TR/2001/REC-SVG-20010904/DTD/svg10.dtd">
<svg version="1.0" xmlns="http://www.w3.org/2000/svg"
 width="1320.000000pt" height="1320.000000pt" viewBox="0 0 1320.000000 1320.000000"
 preserveAspectRatio="xMidYMid meet">

<g transform="translate(0.000000,1320.000000) scale(0.100000,-0.100000)"
fill="#000000" stroke="none">
<path d="M3245 8449 c-166 -13 -460 -72 -449 -90 3 -5 -2 -6 -11 -3 -9 4 -26
2 -38 -3 -12 -6 -62 -25 -112 -43 -528 -191 -882 -469 -1166 -920 -119 -188
-147 -221 -211 -246 -31 -12 -87 -27 -125 -33 -86 -15 -133 -32 -133 -47 0 -6
-10 -14 -23 -18 -13 -3 -45 -24 -70 -46 l-47 -41 -102 6 c-97 7 -104 6 -122
-14 -23 -26 -30 -136 -12 -191 14 -42 31 -48 151 -49 l90 -2 24 -49 c30 -63
77 -94 195 -131 75 -23 101 -37 148 -79 66 -59 102 -118 118 -196 14 -68 96
-319 140 -429 75 -188 132 -303 245 -489 63 -104 207 -285 301 -380 202 -203
402 -342 655 -456 610 -275 1343 -241 1919 89 107 61 169 101 204 134 13 12
43 38 67 57 118 95 305 297 379 410 50 75 52 78 40 53 -26 -56 29 -5 160 147
36 41 80 88 99 105 118 104 246 305 302 476 47 144 89 354 89 449 0 53 -27
124 -58 151 -15 13 -21 17 -14 9 6 -8 12 -21 12 -29 0 -11 -9 -6 -28 14 -16
17 -27 33 -25 38 8 14 -51 7 -69 -10 -17 -15 -18 -13 -18 51 0 58 3 69 19 73
19 5 34 48 45 127 3 22 -1 114 -9 205 -8 91 -11 169 -7 173 10 10 171 34 337
50 177 16 582 17 740 0 185 -19 417 -52 444 -63 23 -9 23 -12 17 -92 -4 -45
-11 -117 -17 -161 -7 -56 -7 -98 2 -150 6 -39 12 -80 13 -91 2 -12 11 -21 24
-23 20 -3 22 -9 22 -65 l0 -61 -28 27 c-38 36 -59 34 -98 -10 -18 -21 -33 -32
-34 -24 0 8 8 23 18 35 17 20 17 20 -10 0 -65 -47 -79 -137 -49 -312 61 -350
158 -548 377 -769 66 -66 161 -164 212 -219 51 -54 91 -92 87 -84 -3 8 0 7 7
-4 99 -143 389 -443 497 -514 31 -20 58 -40 59 -44 2 -5 7 -8 12 -8 4 0 39
-19 76 -41 316 -192 748 -301 1134 -285 579 23 1083 246 1463 646 171 180 341
429 479 700 63 125 178 434 178 478 0 26 60 214 75 236 18 24 101 83 145 103
19 8 62 23 96 34 81 25 136 67 164 123 22 46 40 67 40 47 0 -12 20 -12 118 -4
64 5 98 24 88 49 -3 8 -1 14 3 14 10 0 9 19 -2 36 -4 7 1 14 13 17 17 4 20 14
20 66 0 70 16 63 -142 61 -95 -1 -97 -1 -128 30 -18 18 -52 40 -77 51 -25 10
-41 23 -38 29 9 14 -46 36 -133 54 -39 8 -92 24 -117 35 -25 11 -45 18 -45 16
0 -11 106 -57 182 -80 71 -21 76 -24 33 -19 -53 7 -128 33 -173 61 -36 22
-111 103 -118 128 -9 28 -175 269 -265 383 -80 103 -199 228 -289 303 -157
133 -452 311 -483 293 -7 -4 -9 -3 -4 1 9 11 -142 78 -160 71 -8 -3 -12 -2 -9
2 7 12 -132 55 -152 47 -9 -3 -13 -3 -9 1 16 16 -185 63 -383 91 -243 33 -644
18 -875 -33 -161 -35 -336 -87 -470 -141 -117 -46 -337 -160 -396 -204 -25
-19 -84 -61 -130 -94 -113 -81 -307 -269 -289 -280 8 -5 11 -4 7 2 -4 6 2 18
12 27 12 11 21 13 25 7 4 -5 -1 -14 -10 -19 -9 -5 -16 -13 -16 -18 -1 -18 -83
-104 -95 -100 -16 7 -57 -50 -43 -59 6 -4 9 -3 8 2 -4 14 23 54 33 48 5 -4 -5
-26 -22 -51 -23 -35 -34 -43 -44 -34 -9 8 -14 7 -18 -5 -4 -8 -3 -14 1 -12 11
3 10 -16 -2 -35 -12 -20 -31 -25 -20 -5 4 6 -1 4 -12 -5 -14 -14 -15 -21 -6
-30 9 -9 7 -17 -10 -35 -12 -13 -18 -23 -14 -23 4 0 2 -9 -4 -20 -6 -11 -16
-20 -23 -20 -8 0 -8 3 2 9 8 5 9 11 3 15 -12 7 -25 -22 -15 -36 3 -7 1 -8 -5
-4 -7 4 -18 -7 -28 -26 -9 -18 -27 -48 -41 -66 -13 -18 -26 -41 -28 -52 -5
-26 -14 -40 -25 -40 -5 0 -6 32 -3 70 4 42 2 70 -4 70 -13 0 -13 72 0 88 15
19 3 25 -142 66 -189 54 -414 98 -333 65 13 -5 37 -10 53 -11 17 -1 33 -6 35
-10 5 -8 -23 -6 -141 12 -211 33 -548 34 -757 4 -54 -8 -110 -14 -125 -13 -50
2 13 15 232 49 50 7 50 7 10 9 -60 2 -316 -44 -435 -77 -58 -17 -122 -33 -142
-37 -21 -3 -38 -10 -38 -16 0 -6 5 -7 12 -3 7 5 9 2 5 -9 -3 -9 -1 -17 5 -19
8 -3 8 -10 0 -25 -9 -16 -7 -24 9 -42 l20 -22 -25 7 -26 6 0 -77 c0 -77 0 -78
-20 -60 -11 10 -20 28 -20 41 0 13 -13 43 -30 67 -16 25 -30 48 -30 52 0 3
-30 59 -67 123 -176 309 -390 525 -722 729 -116 72 -333 165 -542 232 -281 90
-645 126 -994 100z m663 -38 c287 -50 614 -161 832 -283 186 -105 426 -299
539 -437 20 -25 51 -61 68 -80 18 -20 33 -39 33 -44 0 -4 15 -29 33 -55 50
-70 150 -243 144 -248 -2 -3 -31 41 -63 97 -148 260 -377 505 -603 647 -24 15
-59 40 -79 55 -30 23 -214 118 -287 147 -287 116 -537 178 -819 205 -189 18
-300 19 -471 4 -143 -12 -187 -7 -75 9 43 6 192 9 350 7 225 -2 297 -7 398
-24z m6009 -2 c118 -10 369 -52 381 -64 8 -7 -17 -5 -68 5 -238 50 -604 65
-837 35 -274 -35 -520 -98 -753 -193 -90 -36 -313 -149 -336 -170 -10 -9 -39
-30 -64 -46 -25 -16 -71 -49 -102 -73 -32 -24 -58 -41 -58 -37 0 4 -9 -5 -21
-20 -11 -14 -28 -26 -36 -26 -9 0 -14 -3 -11 -6 9 -8 -42 -55 -53 -49 -5 4 -9
-1 -9 -9 0 -8 -9 -21 -20 -29 -11 -8 -17 -17 -13 -21 4 -4 -1 -4 -10 0 -16 6
-15 11 15 42 63 67 182 163 195 158 7 -3 12 -1 10 3 -3 14 57 62 71 56 7 -3
10 0 7 5 -4 6 8 18 26 28 17 9 43 27 58 38 14 12 62 40 106 64 44 23 96 50
115 61 68 36 241 103 395 152 132 42 398 92 535 100 132 8 359 6 477 -4z
m-6849 -6 c-10 -2 -28 -2 -40 0 -13 2 -5 4 17 4 22 1 32 -1 23 -4z m-85 -10
c-7 -2 -19 -2 -25 0 -7 3 -2 5 12 5 14 0 19 -2 13 -5z m-46 -9 c-3 -3 -12 -4
-19 -1 -8 3 -5 6 6 6 11 1 17 -2 13 -5z m739 -189 c159 -15 218 -25 379 -66
223 -57 437 -152 640 -285 138 -90 359 -304 454 -439 225 -320 320 -763 250
-1169 -30 -178 -83 -368 -139 -501 -55 -128 -68 -154 -75 -148 -4 5 -5 0 -2
-9 4 -10 2 -18 -3 -18 -9 0 -26 -39 -22 -53 1 -4 -3 -6 -9 -5 -6 2 -14 -3 -17
-11 -3 -9 0 -11 9 -6 8 5 2 -3 -13 -18 -28 -26 -38 -44 -17 -31 8 4 8 0 0 -15
-7 -11 -14 -21 -17 -21 -3 0 -2 5 2 12 5 7 3 8 -5 4 -7 -5 -10 -14 -7 -22 3
-8 0 -13 -6 -11 -6 1 -13 -4 -16 -12 -3 -9 0 -11 9 -6 8 5 11 5 7 1 -3 -4 -9
-6 -12 -4 -3 2 -30 -31 -61 -72 -210 -281 -436 -463 -712 -576 -244 -99 -476
-144 -745 -144 -202 0 -424 47 -642 136 -338 138 -605 355 -843 684 -21 30
-42 62 -46 70 -4 8 -25 44 -48 80 -96 151 -198 397 -249 600 -45 182 -62 319
-63 520 0 205 16 327 64 475 20 60 114 257 145 305 12 18 10 16 -9 -5 -35 -40
-130 -233 -160 -326 -36 -110 -64 -258 -72 -384 -4 -60 -10 -104 -12 -97 -8
22 17 279 33 345 31 125 65 220 112 315 43 87 116 202 129 202 2 0 1 -6 -3
-12 -5 -9 -2 -9 9 1 18 15 23 26 7 16 -17 -10 -11 12 7 26 15 12 16 12 8 -1
-8 -13 -7 -13 8 -1 18 15 23 26 7 16 -51 -32 119 151 190 204 19 14 41 32 49
39 58 55 287 190 421 247 243 105 418 147 740 178 84 9 196 6 346 -8z m6324
-31 c265 -43 467 -108 686 -220 251 -128 450 -296 582 -491 67 -98 113 -189
106 -209 -4 -14 -3 -16 4 -5 8 11 11 9 17 -8 3 -11 3 -25 0 -31 -4 -6 -1 -9 5
-8 15 4 41 -70 78 -212 25 -99 26 -118 26 -340 0 -202 -3 -252 -23 -355 -28
-150 -66 -297 -74 -289 -3 3 -3 -3 -1 -14 3 -10 0 -25 -8 -33 -7 -8 -13 -20
-14 -26 -4 -45 -4 -47 -15 -36 -7 7 -3 35 15 94 38 124 74 295 79 369 3 36 3
54 0 40 -56 -337 -141 -590 -277 -825 -19 -33 -42 -73 -51 -90 -28 -54 -188
-262 -256 -332 -210 -218 -425 -361 -694 -461 -209 -78 -401 -113 -635 -114
-293 -1 -539 55 -795 181 -143 71 -240 137 -393 270 -35 30 -70 56 -77 57 -14
2 -58 48 -98 102 -11 15 8 -2 42 -38 34 -36 61 -60 59 -53 -5 20 -140 173
-149 168 -11 -7 -54 56 -54 80 0 11 -6 20 -12 20 -7 0 -20 11 -29 25 l-16 25
21 -24 c27 -30 27 -18 0 25 -11 19 -25 32 -29 29 -5 -3 -12 0 -16 6 -4 8 -3 9
4 5 16 -10 15 5 -2 26 -7 10 -16 15 -20 11 -4 -4 -4 1 0 11 6 15 4 17 -6 11
-8 -5 -11 -4 -6 3 8 13 -24 83 -36 76 -4 -3 -5 1 -3 8 3 8 -3 23 -13 33 -10
11 -19 23 -20 28 -1 4 -9 24 -18 45 -74 172 -119 317 -156 499 -28 140 -30
409 -4 548 74 392 220 650 523 924 122 110 258 200 418 276 244 118 397 166
675 216 177 31 477 32 660 3z m-4411 -969 c0 -5 -6 1 -14 15 -8 14 -14 30 -14
35 0 6 6 -1 14 -15 8 -14 14 -29 14 -35z m-4412 -101 c-3 -3 -12 -4 -19 -1 -8
3 -5 6 6 6 11 1 17 -2 13 -5z m4590 -306 c-2 -24 -4 -7 -4 37 0 44 2 63 4 43
2 -21 2 -57 0 -80z m1606 -58 c3 -11 1 -18 -4 -14 -5 3 -9 12 -9 20 0 20 7 17
13 -6z m-5746 -277 c-2 -21 -4 -4 -4 37 0 41 2 58 4 38 2 -21 2 -55 0 -75z
m32 -203 c0 -38 -18 35 -23 92 l-5 63 14 -70 c7 -38 14 -77 14 -85z m30 -135
c-2 -17 -27 69 -27 90 0 11 6 -2 14 -30 7 -27 13 -54 13 -60z m8 -47 c-3 -7
-5 -2 -5 12 0 14 2 19 5 13 2 -7 2 -19 0 -25z m5737 -3 c-4 -8 -8 -15 -10 -15
-2 0 -4 7 -4 15 0 8 4 15 10 15 5 0 7 -7 4 -15z m-1746 -20 c-3 -3 -9 2 -12
12 -6 14 -5 15 5 6 7 -7 10 -15 7 -18z m-3960 -70 c0 -5 -6 4 -13 20 -8 17
-14 37 -14 45 0 8 7 -1 14 -20 7 -19 13 -39 13 -45z m31 -90 c0 -5 -4 -3 -9 5
-5 8 -9 22 -9 30 0 16 17 -16 18 -35z m9602 -29 c-6 -7 -7 -17 -3 -21 4 -5 1
-5 -7 0 -11 6 -13 3 -8 -14 8 -31 -2 -58 -14 -39 -7 10 -9 8 -10 -7 -1 -11 -1
-26 0 -34 2 -7 -2 -10 -8 -6 -6 3 -11 4 -11 1 0 -2 -3 -12 -7 -22 -4 -12 -3
-15 5 -10 8 5 10 1 5 -10 -4 -12 -8 -14 -11 -5 -2 7 -10 1 -18 -14 -17 -32
-17 -38 -4 -30 6 3 7 -1 3 -10 -4 -12 -8 -13 -13 -5 -6 9 -10 6 -14 -8 -4 -11
-6 -24 -5 -28 3 -20 -2 -35 -10 -30 -13 9 -35 -23 -36 -52 0 -15 -6 -26 -12
-25 -7 2 -28 -24 -47 -56 -20 -32 -44 -65 -53 -72 -9 -8 -3 6 13 31 27 40 40
61 92 145 18 30 117 233 142 292 12 29 27 50 32 47 5 -3 5 -11 -1 -18z m-9561
-71 c0 -5 -5 -3 -10 5 -5 8 -10 20 -10 25 0 6 5 3 10 -5 5 -8 10 -19 10 -25z
m5858 -210 c-3 -3 -9 2 -12 12 -6 14 -5 15 5 6 7 -7 10 -15 7 -18z m-5754 -1
c3 -8 2 -12 -4 -9 -6 3 -10 10 -10 16 0 14 7 11 14 -7z m3579 1 c-3 -9 -8 -14
-10 -11 -3 3 -2 9 2 15 9 16 15 13 8 -4z m2196 -45 c11 -24 11 -24 -3 -6 -9
11 -16 24 -16 30 0 12 5 7 19 -24z m-5735 -26 c3 -8 2 -12 -4 -9 -6 3 -10 10
-10 16 0 14 7 11 14 -7z m3496 -14 c-6 -11 -13 -20 -16 -20 -2 0 0 9 6 20 6
11 13 20 16 20 2 0 0 -9 -6 -20z m-30 -60 c-6 -11 -13 -20 -16 -20 -2 0 0 9 6
20 6 11 13 20 16 20 2 0 0 -9 -6 -20z m-30 -64 c0 -2 -8 -10 -17 -17 -16 -13
-17 -12 -4 4 13 16 21 21 21 13z m5706 -44 c-17 -16 -18 -16 -5 5 7 12 15 20
18 17 3 -2 -3 -12 -13 -22z m-16 -26 c0 -2 -8 -10 -17 -17 -16 -13 -17 -12 -4
4 13 16 21 21 21 13z m-3230 -46 c6 -11 8 -20 6 -20 -3 0 -10 9 -16 20 -6 11
-8 20 -6 20 3 0 10 -9 16 -20z m321 -27 c13 -16 12 -17 -3 -4 -10 7 -18 15
-18 17 0 8 8 3 21 -13z m-3191 -17 c0 -2 -8 -10 -17 -17 -16 -13 -17 -12 -4 4
13 16 21 21 21 13z m-2789 -33 c13 -16 12 -17 -3 -4 -17 13 -22 21 -14 21 2 0
10 -8 17 -17z m8759 -36 c0 -2 -12 -14 -27 -28 l-28 -24 24 28 c23 25 31 32
31 24z m-8679 -54 c13 -16 12 -17 -3 -4 -10 7 -18 15 -18 17 0 8 8 3 21 -13z
m6276 -225 c44 -29 89 -58 99 -64 16 -10 16 -11 1 -11 -9 0 -17 4 -17 7 0 4
-13 13 -30 20 -16 7 -30 17 -30 23 0 6 -3 8 -6 4 -12 -11 -244 178 -244 200 0
2 33 -25 73 -61 41 -36 110 -89 154 -118z m-6187 137 c13 -14 21 -25 18 -25
-2 0 -15 11 -28 25 -13 14 -21 25 -18 25 2 0 15 -11 28 -25z m2460 22 c0 -2
-10 -12 -22 -23 l-23 -19 19 23 c18 21 26 27 26 19z m5990 -20 c0 -2 -10 -12
-22 -23 l-23 -19 19 23 c18 21 26 27 26 19z m-6110 -81 c0 -5 -107 -88 -130
-101 -27 -15 -1 8 63 57 67 50 67 50 67 44z m5930 -60 c0 -2 -8 -10 -17 -17
-16 -13 -17 -12 -4 4 13 16 21 21 21 13z m-7968 -70 c26 -13 44 -26 41 -30 -6
-5 -65 25 -87 46 -16 13 -4 9 46 -16z m7888 20 c0 -2 -8 -10 -17 -17 -16 -13
-17 -12 -4 4 13 16 21 21 21 13z m-52 -24 c8 -6 0 -15 -26 -30 -22 -12 -42
-19 -46 -15 -3 3 -6 1 -6 -6 0 -7 -4 -10 -9 -7 -5 3 -25 -6 -46 -19 -20 -14
-34 -21 -30 -15 4 6 -10 -1 -30 -14 -20 -14 -62 -32 -93 -41 -31 -8 -64 -19
-73 -25 -30 -16 -268 -71 -352 -80 -107 -13 -329 -12 -439 0 -106 12 -191 33
-181 44 5 5 -3 6 -17 3 -14 -3 -34 -1 -45 3 -33 14 38 10 135 -8 127 -24 492
-23 625 1 210 39 392 99 546 180 75 40 71 39 87 29z m-6003 -12 c-3 -5 -12
-10 -18 -10 -7 0 -6 4 3 10 19 12 23 12 15 0z m4213 -18 c6 -18 -15 -14 -22 4
-4 10 -1 14 6 12 6 -2 14 -10 16 -16z m-5876 -47 c305 -130 613 -183 913 -156
80 7 171 19 202 27 32 7 67 13 78 13 74 -1 -199 -58 -285 -60 -43 -1 -49 -3
-30 -9 23 -7 22 -8 -10 -8 -19 0 -97 -1 -173 -1 -77 -1 -144 2 -150 6 -6 4
-30 6 -52 6 l-40 -1 35 7 c35 7 35 7 -18 14 -62 9 -220 49 -312 79 -95 31
-299 128 -268 128 3 0 53 -20 110 -45z m5910 30 c0 -5 -5 -10 -11 -11 -8 -2
-7 -1 0 3 8 4 7 8 -2 15 -11 8 -11 9 -1 6 8 -2 14 -8 14 -13z m86 -34 c11 -7
10 -9 -3 -14 -9 -4 -14 -3 -10 2 3 5 -1 12 -7 14 -7 3 -8 6 -3 6 6 0 16 -3 23
-8z m-4498 -16 c-14 -8 -29 -14 -35 -14 -5 0 1 6 15 14 14 8 30 14 35 14 6 0
-1 -6 -15 -14z m-70 -30 c-14 -8 -29 -14 -35 -14 -5 0 1 6 15 14 14 8 30 14
35 14 6 0 -1 -6 -15 -14z m4642 7 c-6 -2 -9 -8 -6 -14 5 -8 -29 5 -43 17 -2 1
12 2 30 2 17 0 26 -2 19 -5z m-4747 -47 c-17 -7 -48 -16 -70 -19 -36 -6 -34
-4 15 13 63 22 100 26 55 6z m-1175 -5 c8 -5 11 -10 5 -10 -5 0 -17 5 -25 10
-8 5 -10 10 -5 10 6 0 17 -5 25 -10z m120 -35 c19 -7 28 -13 20 -13 -8 0 -31
6 -50 13 -19 7 -28 13 -20 13 8 0 31 -6 50 -13z m7010 0 c-19 -7 -44 -13 -55
-13 -11 0 -2 5 20 13 53 17 80 17 35 0z m-6880 -30 l55 -15 -49 6 c-27 3 -58
9 -70 14 -34 14 3 11 64 -5z m6760 -1 c-25 -8 -70 -16 -100 -19 l-55 -4 50 9
c28 5 64 14 80 19 17 5 39 9 50 9 11 0 0 -6 -25 -14z m-195 -35 c-22 -4 -114
-7 -205 -6 l-165 1 160 6 c88 3 180 6 205 7 l45 1 -40 -9z"/>
<path d="M1700 6966 c0 -8 6 -19 14 -23 65 -38 374 -347 434 -435 9 -13 22
-29 29 -36 7 -8 26 -30 41 -50 15 -21 32 -41 38 -47 9 -8 145 -179 227 -285 7
-8 23 -29 37 -46 14 -17 39 -48 55 -70 17 -21 38 -46 48 -56 9 -10 17 -21 17
-24 0 -9 82 -124 113 -158 15 -17 27 -34 27 -38 0 -4 15 -24 34 -44 19 -21 41
-49 48 -63 7 -14 16 -28 20 -32 5 -3 29 -36 55 -75 55 -79 83 -90 141 -54 35
22 43 50 13 50 -20 0 -46 24 -128 116 -29 32 -70 79 -92 104 -23 25 -43 53
-46 63 -4 9 -11 17 -16 17 -5 0 -9 6 -9 12 0 7 -11 24 -24 38 -79 81 -97 110
-71 110 8 0 15 -5 15 -12 0 -6 15 -25 33 -42 18 -17 64 -67 102 -110 93 -106
163 -176 175 -176 6 0 10 -7 10 -15 0 -8 4 -15 8 -15 5 0 24 -21 43 -46 l34
-46 12 41 c8 29 9 50 2 70 -8 23 -325 340 -423 424 -20 17 -564 559 -697 694
-115 117 -203 197 -264 238 -52 36 -55 37 -55 21z"/>
<path d="M11434 7047 c1 -36 -1 -39 -37 -52 -89 -31 -201 -110 -316 -225 -64
-63 -126 -128 -139 -144 -79 -103 -493 -532 -671 -696 -308 -283 -341 -322
-326 -369 4 -15 20 -3 83 59 115 116 167 173 181 197 6 13 22 25 35 29 13 3
30 20 39 40 9 19 21 34 27 34 5 0 10 6 10 14 0 25 40 30 62 8 l21 -20 -33 -41
c-19 -23 -37 -41 -40 -41 -4 0 -10 -12 -13 -28 -7 -34 -39 -72 -61 -72 -9 0
-16 -8 -16 -19 0 -11 -8 -26 -18 -33 -11 -7 -25 -24 -32 -38 -7 -14 -20 -32
-29 -40 -9 -8 -32 -35 -51 -60 -18 -25 -49 -60 -67 -79 l-34 -35 23 -12 c28
-16 68 -18 68 -4 0 6 6 10 14 10 8 0 17 8 20 18 4 10 16 29 29 42 27 30 67 88
67 99 0 4 9 16 20 26 11 10 20 24 20 30 0 7 7 16 16 19 8 3 13 10 10 15 -9 14
4 41 19 41 11 0 27 22 29 42 1 4 7 13 14 20 6 6 12 20 12 30 0 10 20 38 45 61
41 40 44 46 40 82 l-5 40 14 -35 c8 -19 15 -27 15 -18 1 25 34 78 49 78 6 0
12 9 12 20 0 11 4 20 8 20 5 0 24 21 42 48 19 26 37 49 40 52 4 3 35 43 71 90
145 193 319 408 389 483 71 75 180 167 199 167 5 0 14 7 22 16 7 9 30 23 51
31 21 8 35 19 32 24 -3 6 5 7 20 3 22 -5 26 -3 27 17 l1 24 8 -25 c6 -20 8
-21 8 -5 0 11 -5 38 -13 60 l-13 40 2 -38z m-954 -1007 c0 -4 -9 -15 -19 -27
-11 -11 -21 -30 -23 -42 -4 -28 -23 -23 -23 7 1 12 -4 22 -9 22 -5 0 0 10 12
23 19 20 62 32 62 17z"/>
<path d="M11477 6601 c-4 -90 -6 -166 -3 -168 7 -7 18 196 14 267 -2 41 -6 5
-11 -99z"/>
<path d="M8091 5325 c0 -5 11 -23 24 -40 14 -16 25 -25 25 -18 0 7 -11 25 -25
40 -13 15 -24 24 -24 18z"/>
<path d="M10450 4765 c-14 -8 -20 -14 -14 -15 5 0 19 7 30 15 24 18 16 19 -16
0z"/>
<path d="M3398 4523 c18 -2 45 -2 60 0 15 2 0 4 -33 4 -33 0 -45 -2 -27 -4z"/>
<path d="M7829 7653 c-1 -4 -1 -12 0 -16 1 -5 -7 -11 -18 -14 -16 -4 -35 -28
-32 -40 2 -7 16 -2 16 5 0 5 13 20 29 34 20 17 25 27 18 32 -7 4 -13 4 -13 -1z"/>
<path d="M6443 7483 c9 -2 23 -2 30 0 6 3 -1 5 -18 5 -16 0 -22 -2 -12 -5z"/>
<path d="M6533 7483 c20 -2 54 -2 75 0 20 2 3 4 -38 4 -41 0 -58 -2 -37 -4z"/>
<path d="M6779 7471 c18 -5 63 -11 100 -14 46 -4 56 -3 32 2 -18 5 -63 11
-100 14 -46 4 -56 3 -32 -2z"/>
<path d="M559 6973 c-52 -13 -31 -231 23 -241 14 -3 16 4 11 50 -3 34 1 77 11
117 9 34 16 67 16 72 0 9 -31 10 -61 2z"/>
<path d="M12533 6903 c14 -52 16 -75 8 -141 -8 -82 0 -99 25 -51 24 48 24 177
-1 195 -26 19 -37 17 -32 -3z"/>
</g>
</svg>
